<svg width="1304" height="1481" viewBox="0 0 1304 1481" fill="none" xmlns="http://www.w3.org/2000/svg">
<path d="M804.336 804.201L1286.1 1054.68L1190.27 1220.66L732.465 928.685L804.336 804.201Z" fill="url(#paint0_linear_6644_50255)"/>
<path d="M724.318 938.315L748.275 1480.77H556.619L580.576 938.315H724.318Z" fill="url(#paint1_linear_6644_50255)"/>
<path d="M569.115 930.411L111.312 1222.39L15.4842 1056.41L497.244 805.927L569.115 930.411Z" fill="url(#paint2_linear_6644_50255)"/>
<path d="M804.336 784.086L1286.1 533.605L1190.27 367.626L732.465 659.602L804.336 784.086Z" fill="url(#paint3_linear_6644_50255)"/>
<path d="M569.115 657.89L111.312 365.914L15.4842 531.893L497.244 782.374L569.115 657.89Z" fill="url(#paint4_linear_6644_50255)"/>
<g filter="url(#filter0_f_6644_50255)">
<path fill-rule="evenodd" clip-rule="evenodd" d="M647.395 165.481C319.451 165.481 53.6002 431.332 53.6002 759.276C53.6002 1087.22 319.451 1353.07 647.395 1353.07V1362.23C314.393 1362.23 44.4414 1092.28 44.4414 759.276C44.4414 426.274 314.393 156.322 647.395 156.322V165.481Z" fill="url(#paint5_linear_6644_50255)"/>
</g>
<g filter="url(#filter1_f_6644_50255)">
<path fill-rule="evenodd" clip-rule="evenodd" d="M651.114 165.481C323.171 165.481 68.4344 431.332 68.4344 759.276C68.4344 1087.22 323.171 1353.07 651.114 1353.07V1362.23C318.113 1362.23 37.0469 1092.28 37.0469 759.276C37.0469 426.274 318.113 156.322 651.114 156.322V165.481Z" fill="url(#paint6_linear_6644_50255)"/>
</g>
<g filter="url(#filter2_f_6644_50255)">
<path fill-rule="evenodd" clip-rule="evenodd" d="M655.754 165.481C983.697 165.481 1249.55 431.332 1249.55 759.276C1249.55 1087.22 983.697 1353.07 655.754 1353.07V1362.23C988.756 1362.23 1258.71 1092.28 1258.71 759.276C1258.71 426.274 988.756 156.322 655.754 156.322V165.481Z" fill="url(#paint7_linear_6644_50255)"/>
</g>
<g filter="url(#filter3_f_6644_50255)">
<path fill-rule="evenodd" clip-rule="evenodd" d="M652.034 165.481C979.978 165.481 1234.71 431.332 1234.71 759.276C1234.71 1087.22 979.978 1353.07 652.034 1353.07V1362.23C985.036 1362.23 1266.1 1092.28 1266.1 759.276C1266.1 426.274 985.036 156.322 652.034 156.322V165.481Z" fill="url(#paint8_linear_6644_50255)"/>
</g>
<path d="M1249.16 302.861L757.103 625.849C748.657 631.356 741.818 638.999 737.281 648.004L662.267 798.42C661.179 800.917 659.385 803.041 657.107 804.534C654.829 806.026 652.164 806.821 649.441 806.821C646.717 806.821 644.053 806.026 641.775 804.534C639.496 803.041 637.703 800.917 636.615 798.42L561.6 648.004C557.064 638.999 550.225 631.356 541.778 625.849L49.7171 302.861C47.2431 299.923 43.7034 298.089 39.8767 297.761C36.0499 297.433 32.2496 298.638 29.3118 301.112C26.3739 303.586 24.5392 307.126 24.2111 310.953C23.8831 314.779 25.0887 318.58 27.5627 321.518L233.171 721.463C234.171 723.557 234.663 725.857 234.608 728.176C234.553 730.496 233.952 732.769 232.854 734.813C231.757 736.858 230.193 738.614 228.289 739.941C226.386 741.268 224.197 742.128 221.9 742.451H98.3014C95.2492 742.423 92.2671 743.366 89.7866 745.145C87.3062 746.923 85.456 749.445 84.5037 752.345C83.5515 755.245 83.5467 758.373 84.4899 761.276C85.4332 764.179 87.2756 766.706 89.7505 768.492L640.89 1163.39C643.409 1165.11 646.39 1166.03 649.441 1166.03C652.492 1166.03 655.472 1165.11 657.992 1163.39L1209.13 768.492C1211.61 766.706 1213.45 764.179 1214.39 761.276C1215.33 758.373 1215.33 755.245 1214.38 752.345C1213.43 749.445 1211.58 746.923 1209.09 745.145C1206.61 743.366 1203.63 742.423 1200.58 742.451H1076.98C1074.55 742.358 1072.18 741.665 1070.08 740.434C1067.98 739.203 1066.21 737.471 1064.94 735.394C1063.68 733.317 1062.94 730.958 1062.8 728.528C1062.66 726.097 1063.13 723.67 1064.16 721.463L1271.32 321.518C1273.79 318.58 1275 314.779 1274.67 310.953C1274.34 307.126 1272.51 303.586 1269.57 301.112C1266.63 298.638 1262.83 297.433 1259 297.761C1255.18 298.089 1251.64 299.923 1249.16 302.861Z" fill="#DADAE8"/>
<path d="M660.326 6.68806L710.854 109.687C711.753 111.388 713.023 112.865 714.571 114.009C716.118 115.153 717.903 115.934 719.793 116.294L833.675 132.618C835.904 132.946 837.996 133.891 839.715 135.348C841.434 136.805 842.709 138.714 843.397 140.859C844.085 143.005 844.158 145.3 843.608 147.484C843.057 149.669 841.905 151.655 840.282 153.218L757.884 233.285C756.554 234.662 755.55 236.32 754.945 238.136C754.34 239.951 754.149 241.88 754.385 243.779L773.819 356.883C774.247 359.063 774.042 361.32 773.23 363.388C772.418 365.456 771.032 367.249 769.235 368.556C767.438 369.863 765.305 370.629 763.088 370.764C760.87 370.9 758.66 370.399 756.718 369.321L654.885 316.072C653.231 315.117 651.354 314.614 649.444 314.614C647.533 314.614 645.656 315.117 644.002 316.072L542.17 369.321C540.227 370.399 538.017 370.9 535.799 370.764C533.582 370.629 531.449 369.863 529.652 368.556C527.855 367.249 526.469 365.456 525.657 363.388C524.845 361.32 524.641 359.063 525.068 356.883L544.502 243.779C544.738 241.88 544.547 239.951 543.942 238.136C543.337 236.32 542.333 234.662 541.003 233.285L458.605 153.218C456.982 151.655 455.83 149.669 455.279 147.484C454.729 145.3 454.801 143.005 455.49 140.859C456.178 138.714 457.453 136.805 459.172 135.348C460.891 133.891 462.983 132.946 465.212 132.618L579.094 116.683C580.984 116.323 582.769 115.542 584.316 114.398C585.864 113.254 587.134 111.777 588.033 110.075L638.561 7.07673C639.501 5.00044 641.012 3.23357 642.916 1.98127C644.821 0.728966 647.042 0.0426188 649.321 0.00192122C651.6 -0.0387764 653.844 0.567844 655.792 1.75135C657.74 2.93485 659.312 4.64667 660.326 6.68806Z" fill="#DADAE8"/>
<defs>
<filter id="filter0_f_6644_50255" x="32.2297" y="144.111" width="627.377" height="1230.33" filterUnits="userSpaceOnUse" color-interpolation-filters="sRGB">
<feFlood flood-opacity="0" result="BackgroundImageFix"/>
<feBlend mode="normal" in="SourceGraphic" in2="BackgroundImageFix" result="shape"/>
<feGaussianBlur stdDeviation="6.10586" result="effect1_foregroundBlur_6644_50255"/>
</filter>
<filter id="filter1_f_6644_50255" x="-0.000946045" y="119.274" width="688.164" height="1280" filterUnits="userSpaceOnUse" color-interpolation-filters="sRGB">
<feFlood flood-opacity="0" result="BackgroundImageFix"/>
<feBlend mode="normal" in="SourceGraphic" in2="BackgroundImageFix" result="shape"/>
<feGaussianBlur stdDeviation="18.5239" result="effect1_foregroundBlur_6644_50255"/>
</filter>
<filter id="filter2_f_6644_50255" x="643.542" y="144.111" width="627.377" height="1230.33" filterUnits="userSpaceOnUse" color-interpolation-filters="sRGB">
<feFlood flood-opacity="0" result="BackgroundImageFix"/>
<feBlend mode="normal" in="SourceGraphic" in2="BackgroundImageFix" result="shape"/>
<feGaussianBlur stdDeviation="6.10586" result="effect1_foregroundBlur_6644_50255"/>
</filter>
<filter id="filter3_f_6644_50255" x="614.985" y="119.274" width="688.164" height="1280" filterUnits="userSpaceOnUse" color-interpolation-filters="sRGB">
<feFlood flood-opacity="0" result="BackgroundImageFix"/>
<feBlend mode="normal" in="SourceGraphic" in2="BackgroundImageFix" result="shape"/>
<feGaussianBlur stdDeviation="18.5239" result="effect1_foregroundBlur_6644_50255"/>
</filter>
<linearGradient id="paint0_linear_6644_50255" x1="1238.18" y1="1137.67" x2="768.401" y2="866.443" gradientUnits="userSpaceOnUse">
<stop stop-color="#FFF6D6" stop-opacity="0"/>
<stop offset="1" stop-color="#FFEFC5" stop-opacity="0.4"/>
</linearGradient>
<linearGradient id="paint1_linear_6644_50255" x1="652.447" y1="1480.77" x2="652.447" y2="938.315" gradientUnits="userSpaceOnUse">
<stop stop-color="#FFF6D6" stop-opacity="0"/>
<stop offset="1" stop-color="#FFEFC5" stop-opacity="0.4"/>
</linearGradient>
<linearGradient id="paint2_linear_6644_50255" x1="63.3984" y1="1139.4" x2="533.179" y2="868.169" gradientUnits="userSpaceOnUse">
<stop stop-color="#FFF6D6" stop-opacity="0"/>
<stop offset="1" stop-color="#FFEFC5" stop-opacity="0.4"/>
</linearGradient>
<linearGradient id="paint3_linear_6644_50255" x1="1238.18" y1="450.616" x2="768.401" y2="721.844" gradientUnits="userSpaceOnUse">
<stop stop-color="#FFF6D6" stop-opacity="0"/>
<stop offset="1" stop-color="#FFEFC5" stop-opacity="0.4"/>
</linearGradient>
<linearGradient id="paint4_linear_6644_50255" x1="63.3984" y1="448.904" x2="533.179" y2="720.132" gradientUnits="userSpaceOnUse">
<stop stop-color="#FFF6D6" stop-opacity="0"/>
<stop offset="1" stop-color="#FFEFC5" stop-opacity="0.4"/>
</linearGradient>
<linearGradient id="paint5_linear_6644_50255" x1="-18.1436" y1="759.276" x2="360.42" y2="759.276" gradientUnits="userSpaceOnUse">
<stop stop-color="#FFF0DA"/>
<stop offset="0.321814" stop-color="#3610A6" stop-opacity="0.22"/>
<stop offset="1" stop-color="#FFE6C0" stop-opacity="0"/>
</linearGradient>
<linearGradient id="paint6_linear_6644_50255" x1="47.235" y1="760.202" x2="364.139" y2="759.276" gradientUnits="userSpaceOnUse">
<stop stop-color="#0552B5"/>
<stop offset="0.321814" stop-color="#FFE6C0" stop-opacity="0"/>
<stop offset="1" stop-color="#FFE6C0" stop-opacity="0"/>
</linearGradient>
<linearGradient id="paint7_linear_6644_50255" x1="1321.29" y1="759.276" x2="942.729" y2="759.276" gradientUnits="userSpaceOnUse">
<stop stop-color="#FFF0DA"/>
<stop offset="0.321814" stop-color="#3610A6" stop-opacity="0.22"/>
<stop offset="1" stop-color="#FFE6C0" stop-opacity="0"/>
</linearGradient>
<linearGradient id="paint8_linear_6644_50255" x1="1255.91" y1="760.202" x2="939.009" y2="759.276" gradientUnits="userSpaceOnUse">
<stop stop-color="#0552B5"/>
<stop offset="0.321814" stop-color="#FFE6C0" stop-opacity="0"/>
<stop offset="1" stop-color="#FFE6C0" stop-opacity="0"/>
</linearGradient>
</defs>
</svg>
