<svg width="1309" height="1309" viewBox="0 0 1309 1309" fill="none" xmlns="http://www.w3.org/2000/svg">
<path d="M654.297 1240.43C640.666 1240.43 627.58 1233.34 619.946 1221.89L127.045 458.55C115.049 439.466 120.502 414.384 139.04 401.844C158.124 389.848 183.205 394.756 195.746 413.839L653.751 1123.75L1110.12 413.839C1122.12 394.756 1147.74 389.304 1166.83 401.299C1185.91 413.294 1191.36 438.92 1179.37 458.004L688.648 1221.35C681.014 1233.34 668.473 1240.43 654.297 1240.43Z" fill="white"/>
<g style="mix-blend-mode:hard-light" opacity="0.4">
<path d="M213.735 218.098H312.968C322.237 218.098 330.417 222.46 335.869 230.093L632.482 674.467C643.387 690.824 666.832 690.824 677.737 674.467L974.35 230.093C979.257 222.46 987.982 218.098 997.251 218.098H1096.48C1118.29 218.098 1130.84 242.089 1119.39 260.082L678.828 946C667.924 962.902 643.931 962.902 633.026 946L192.47 260.082C178.838 242.089 191.925 218.098 213.735 218.098Z" fill="#13112E"/>
</g>
<path d="M436.196 163.573L631.393 456.915C642.298 473.272 665.744 473.272 676.649 456.915L872.392 163.573L719.724 218.098V109.049H588.864V218.098L436.196 163.573Z" fill="white"/>
</svg>
